# xmcd
# 
# Track frame offsets:
#     150
#     13144
#     28004
#     41708
#     56665
#     72420
#     85388
#     98409
#     111779
#     124890
#     139100
#     151962
#     165505
#     177707
#     193065
#     206941
#     220566
#     235181
#     247520
#     260178
#     272225
#     285679
#     298932
#     313416
#     328474
# 
# Disc length: 4576
# 
# Revision: 11
# Processed by: cddbd v1.5.2PL0 Copyright (c) Steve Scherf et al.
# Submitted via: fre:ac v1.0.31
# 
DISCID=8c11de19
DTITLE=Blues - When the Sun Goes Down - Volume 3 - That's Chicago's South Side
DYEAR=2002
DGENRE=Blues
TTITLE0=Sam Theard - That's Chicago's South Side (mono)
TTITLE1=Pete Wheatstraw - Peetie Wheatstraw (mono)
TTITLE2=Roosevelt Sykes - Devil's Island Gin Blues (mono)
TTITLE3=Amos Easton - Sail On, Little Girl, Sail On (mono)
TTITLE4=Joe Pullum - Black Gal, What Makes Your Head So Hard (mono)
TTITLE5=Lil Johnson - I Lost My Baby (mono)
TTITLE6=Big Bill Broonzy - Keep Your Hands Off Her (mono)
TTITLE7=Leroy Carr - When the  Sun Goes Down (mono)
TTITLE8=Minnie McCoy - Selling My Pork Chops (mono)
TTITLE9=Pine Top - Every Day I Have The Blues (mono)
TTITLE10=Walter Davis - Sweet Sixteen (mono)
TTITLE11=Meade Lux Lewis - Honky Tonk Train Blues (mono)
TTITLE12=Richard M. Jones - Trouble In Mind (mono)
TTITLE13=Merline Johnson - He Roars Like A Lion (mono)
TTITLE14=Robert Lee McCoy - Prowling Night Hawk (mono)
TTITLE15=Sonny Boy Williamson - Good Morning School Girl (mono)
TTITLE16=Speckled Red - You Got To Fix It (mono)
TTITLE17=Washboard Sam - Bucket's Got A Hole In It (mono)
TTITLE18=Tommy McClennan - Bottle It Up And Go (mono)
TTITLE19=Jazz Gillum - Key To The Highway (mono)
TTITLE20=Tampa Red - Don't You Lie To Me (mono)
TTITLE21=Johnny Temple - What Is That She Got (mono)
TTITLE22=St. Louis Jimmy - Going Down Slow (mono)
TTITLE23=Yank Rachel - Hobo Blues (mono)
TTITLE24=Lonnie Johnson - He's A Jelly Roll Baker (mono)
EXTD=
EXTT0=
EXTT1=
EXTT2=
EXTT3=
EXTT4=
EXTT5=
EXTT6=
EXTT7=
EXTT8=
EXTT9=
EXTT10=
EXTT11=
EXTT12=
EXTT13=
EXTT14=
EXTT15=
EXTT16=
EXTT17=
EXTT18=
EXTT19=
EXTT20=
EXTT21=
EXTT22=
EXTT23=
EXTT24=
PLAYORDER=
